<?xml version="1.0" encoding="UTF-8"?>
<svg id="Layer_1" data-name="Layer 1" xmlns="http://www.w3.org/2000/svg" viewBox="0 0 400 400">
  <defs>
    <style>
      .cls-1 {
        fill: none;
        stroke: #231f20;
        stroke-miterlimit: 10;
        stroke-width: 2px;
      }

      .cls-2 {
        fill: #231f20;
      }

      .cls-3 {
        fill: #f5876c;
      }
    </style>
  </defs>
  <path class="cls-3" d="M298.7,359.47c-1.59-2.37-3.58-4.95-6.06-7.53-6.29-6.53-13.05-10.26-17.94-12.38l-15.83-9.19,8.68-91.91,31.15-78.64-39.83-43.91-29.62-42.89-20.94-22.47-32.17-27.06-9.7-14.81,26.55,14.3s112.51,4.43,123.06,130.72c0,0,5.19,26.89-22.94,99.06l-10.43,31.83s13.96,2.54,13.96,6.42v17.41s-.26,7.06-4.6,7.74c-4.34.68-11.74,2.21-11.74,2.21,0,0-7.15,13.79,2.04,19.66,0,0,21.96,9.19,27.32,24.77l-10.98-3.32Z"/>
  <path class="cls-3" d="M105.17,163.64l23.49-30.64,23.49-26.04,38.81-29.62v-41.41s-26.13-27.27-26.13-27.27l-.6,15.91s-16.09,4.34-20.85,9.7l12.34,20.85-22.89,16.17-2.04,18.3-41.79,57.28s1.02,33.87,16.17,16.77Z"/>
  <path class="cls-2" d="M298.7,359.47s-4.6-12.26-24-19.91c0,0-6.64-11.57,0-23.4,6.64-11.83,10.52-30.72,10.52-30.72,0,0-.31-15.83,10.41-47.49,26.83-57.92,21.28-122.41-14.81-164.94-26.3-30.99-60.92-41-76.6-44.43,0,0,89.36,41.36,92.94,121.02,0,0-18.89-89.36-89.87-104.68l6.64-2.55-45.96-31.15s-2.04,30.64,5.62,34.72l15.83-1.02s-27.06,8.68-38.3,21.96l-7.66,1.02-5.62,4.6-2.55,18.89-37.28,48s-9.7,11.23-4.6,20.43c5.11,9.19.51,11.23,16.85,17.36l12.77,1.02,19.91-21.45s44.73,1.53,58.11-18.89c0,0,4.19,21.96-32.58,61.79,0,0-50.04,45.96-47.49,85.79,2.55,39.83,7.15,34.21,7.15,34.21,0,0-.51,16.85-3.57,17.36-3.06.51-27.57,15.83-27.57,25.53s141.45,15.32,141.45,15.32l57.19-3.02,3.06-15.36Z"/>
  <path class="cls-2" d="M164.91,29.6s-12.51,1.28-15.83,6.64l10.21,17.62,11.49-6.13s-6.13-5.87-5.87-18.13Z"/>
  <path class="cls-1" d="M309.68,390.19s14.55-15.91,0-30.72c0,0,22.72,7.83,0,30.72Z"/>
  <path class="cls-3" d="M131.47,339.04h9.96s5.87-8.94,0-24.51h-9.96s6.13,10.98,0,24.51Z"/>
  <path class="cls-3" d="M131.47,279.55h11.49s-4.09-28.6,28.6-63.83c0,0,50.3-39.83,54.89-76.09,0,0-12.77,34.72-58.47,71.74,0,0-26.81,22.47-36.51,68.17Z"/>
  <path class="cls-3" d="M206.11,108.91s-1.62,32.85-46.17,35.74h-17.15s-6.13,1.53-8,5.11-20.26,22.98-26.38,19.74c0,0,9.7,4.77,18.04-6.13s13.28-15.66,22.64-14.13,57.11-3.66,57.02-40.34Z"/>
  <path class="cls-3" d="M148.06,115.13l11.83-10.38c4.56-2.79,9.54-1.21,10.72,1.28,1.18,2.47-.71,7.29-5.7,9.11h-16.85Z"/>
  <path class="cls-3" d="M157.77,82.53l-6.3-2.64c-1.79-1.03-3.82-.85-4.85.26-.96,1.04-.8,2.62-.77,2.89.04.34.15,1.43.94,2.21,1.05,1.04,2.94,1.19,4.68.34,2.1-1.02,4.2-2.04,6.3-3.06Z"/>
  <g>
    <rect class="cls-2" x="106.74" y="285.43" width="186.38" height="30.72" rx="10.98" ry="10.98"/>
    <path class="cls-3" d="M130.19,285.43s-19.8,9.55-8.37,10.65,163.6,0,163.6,0c0,0,.51-10.65-7.15-10.65h-148.09Z"/>
    <path class="cls-2" d="M162.87,283.38s-20.17,8.94-13.28,15.57,84,1.83,84,1.83c0,0-4.09-17.4-17.11-21.23s-53.62,3.83-53.62,3.83Z"/>
  </g>
  <g>
    <rect class="cls-2" x="80.15" y="359.47" width="240.51" height="30.72" rx="10.98" ry="10.98"/>
    <path class="cls-3" d="M106.74,359.47s-14.34,10.72-6.17,11.74,206.81,0,206.81,0c0,0-1.02-11.74-8.68-11.74s-191.96,0-191.96,0Z"/>
    <path class="cls-2" d="M166.45,355.89s-27.89,6.72-18.29,18.94,72.67,3.28,72.67,3.28l15.83-3.28s3.57-10-11.49-18.94-58.72,0-58.72,0Z"/>
  </g>
</svg>